<svg width="10" height="9" viewBox="0 0 10 9" fill="none" xmlns="http://www.w3.org/2000/svg">
<path fill-rule="evenodd" clip-rule="evenodd" d="M9.35608 3.54134L6.61657 3.14332L5.3919 0.660945C5.35703 0.601654 5.29339 0.565247 5.22461 0.565247C5.15583 0.565247 5.09218 0.601654 5.05732 0.660945L3.83209 3.14276L1.09183 3.54134C1.02154 3.55148 0.963103 3.60065 0.941085 3.66817C0.919066 3.7357 0.937285 3.80986 0.988083 3.8595L2.97092 5.79195L2.50292 8.52045C2.49098 8.5904 2.51974 8.66107 2.57714 8.70279C2.63454 8.74452 2.71064 8.75007 2.77349 8.71713L5.22395 7.42901L7.67442 8.71657C7.73727 8.74951 7.81337 8.74396 7.87077 8.70223C7.92817 8.66051 7.95693 8.58984 7.94499 8.51989L7.47699 5.79195L9.45983 3.8595C9.51062 3.80989 9.52886 3.73575 9.50688 3.66824C9.48491 3.60073 9.42652 3.55154 9.35626 3.54134H9.35608Z" fill="#F5A623"/>
</svg>
